<?xml version="1.0" encoding="UTF-8"?>
<svg width="2262px" height="886px" viewBox="0 0 2262 886" version="1.1" xmlns="http://www.w3.org/2000/svg" xmlns:xlink="http://www.w3.org/1999/xlink">
    <!-- Generator: Sketch 50.2 (55047) - http://www.bohemiancoding.com/sketch -->
    <title>logo 1</title>
    <desc>Created with Sketch.</desc>
    <defs></defs>
    <g id="Page-1" stroke="none" stroke-width="1" fill="none" fill-rule="evenodd">
        <g id="logo-1" transform="translate(-175.000000, -147.000000)">
            <path d="M1410.25,847.15625 L1363,697.8125 L1401.39062,697.8125 L1429.375,795.6875 L1455.10938,697.8125 L1493.21875,697.8125 L1518.10938,795.6875 L1546.65625,697.8125 L1585.60938,697.8125 L1537.65625,847.15625 L1499.6875,847.15625 L1473.95312,751.109375 L1448.64062,847.15625 L1410.25,847.15625 Z M1606.42188,677.5625 L1606.42188,641 L1645.9375,641 L1645.9375,677.5625 L1606.42188,677.5625 Z M1606.42188,847.15625 L1606.42188,697.8125 L1645.9375,697.8125 L1645.9375,847.15625 L1606.42188,847.15625 Z M1822.28125,847.15625 L1782.76562,847.15625 L1782.76562,770.9375 C1782.76562,754.812419 1781.92188,744.382836 1780.23438,739.648438 C1778.54687,734.914039 1775.80471,731.234388 1772.00781,728.609375 C1768.21092,725.984362 1763.64065,724.671875 1758.29688,724.671875 C1751.45309,724.671875 1745.31253,726.546856 1739.875,730.296875 C1734.43747,734.046894 1730.71095,739.015594 1728.69531,745.203125 C1726.67968,751.390656 1725.67188,762.828042 1725.67188,779.515625 L1725.67188,847.15625 L1686.15625,847.15625 L1686.15625,697.8125 L1722.85938,697.8125 L1722.85938,719.75 C1735.89069,702.874916 1752.29678,694.4375 1772.07812,694.4375 C1780.79692,694.4375 1788.76559,696.007797 1795.98438,699.148438 C1803.20316,702.289078 1808.66404,706.296851 1812.36719,711.171875 C1816.07033,716.046899 1818.64843,721.578094 1820.10156,727.765625 C1821.55469,733.953156 1822.28125,742.812442 1822.28125,754.34375 L1822.28125,847.15625 Z M1998.20312,847.15625 L1958.6875,847.15625 L1958.6875,770.9375 C1958.6875,754.812419 1957.84376,744.382836 1956.15625,739.648438 C1954.46874,734.914039 1951.72658,731.234388 1947.92969,728.609375 C1944.13279,725.984362 1939.56253,724.671875 1934.21875,724.671875 C1927.37497,724.671875 1921.2344,726.546856 1915.79688,730.296875 C1910.35935,734.046894 1906.63282,739.015594 1904.61719,745.203125 C1902.60155,751.390656 1901.59375,762.828042 1901.59375,779.515625 L1901.59375,847.15625 L1862.07812,847.15625 L1862.07812,697.8125 L1898.78125,697.8125 L1898.78125,719.75 C1911.81257,702.874916 1928.21865,694.4375 1948,694.4375 C1956.71879,694.4375 1964.68746,696.007797 1971.90625,699.148438 C1979.12504,702.289078 1984.58592,706.296851 1988.28906,711.171875 C1991.99221,716.046899 1994.57031,721.578094 1996.02344,727.765625 C1997.47657,733.953156 1998.20312,742.812442 1998.20312,754.34375 L1998.20312,847.15625 Z M2124.76562,799.625 L2164.14062,806.234375 C2159.0781,820.671947 2151.08599,831.664025 2140.16406,839.210938 C2129.24213,846.75785 2115.57821,850.53125 2099.17188,850.53125 C2073.203,850.53125 2053.98444,842.04696 2041.51562,825.078125 C2031.67183,811.484307 2026.75,794.328229 2026.75,773.609375 C2026.75,748.859251 2033.21869,729.476633 2046.15625,715.460938 C2059.09381,701.445242 2075.45303,694.4375 2095.23438,694.4375 C2117.45324,694.4375 2134.98431,701.773364 2147.82812,716.445313 C2160.67194,731.117261 2166.8125,753.593599 2166.25,783.875 L2067.25,783.875 C2067.53125,795.593809 2070.71872,804.710905 2076.8125,811.226563 C2082.90628,817.74222 2090.49995,821 2099.59375,821 C2105.78128,821 2110.98435,819.312517 2115.20312,815.9375 C2119.4219,812.562483 2122.60936,807.125038 2124.76562,799.625 Z M2127.01562,759.6875 C2126.73437,748.249943 2123.78128,739.554717 2118.15625,733.601563 C2112.53122,727.648408 2105.68754,724.671875 2097.625,724.671875 C2088.99996,724.671875 2081.87503,727.812469 2076.25,734.09375 C2070.62497,740.375031 2067.85937,748.906196 2067.95312,759.6875 L2127.01562,759.6875 Z M2236.28125,847.15625 L2196.76562,847.15625 L2196.76562,697.8125 L2233.46875,697.8125 L2233.46875,719.046875 C2239.75003,709.015575 2245.39841,702.406266 2250.41406,699.21875 C2255.42971,696.031234 2261.12497,694.4375 2267.5,694.4375 C2276.50004,694.4375 2285.17183,696.92185 2293.51562,701.890625 L2281.28125,736.34375 C2274.62497,732.031228 2268.43753,729.875 2262.71875,729.875 C2257.18747,729.875 2252.50002,731.398422 2248.65625,734.445313 C2244.81248,737.492203 2241.78907,742.99996 2239.58594,750.96875 C2237.3828,758.93754 2236.28125,775.624873 2236.28125,801.03125 L2236.28125,847.15625 Z M2296.60938,804.546875 L2336.26562,798.5 C2337.95313,806.187538 2341.37497,812.023418 2346.53125,816.007813 C2351.68753,819.992207 2358.9062,821.984375 2368.1875,821.984375 C2378.4063,821.984375 2386.09372,820.109394 2391.25,816.359375 C2394.71877,813.734362 2396.45312,810.218772 2396.45312,805.8125 C2396.45312,802.812485 2395.51563,800.328135 2393.64062,798.359375 C2391.67187,796.484366 2387.26566,794.750008 2380.42188,793.15625 C2348.54672,786.124965 2328.34379,779.703154 2319.8125,773.890625 C2307.99994,765.828085 2302.09375,754.625072 2302.09375,740.28125 C2302.09375,727.343685 2307.20307,716.468794 2317.42188,707.65625 C2327.64068,698.843706 2343.48427,694.4375 2364.95312,694.4375 C2385.39073,694.4375 2400.57808,697.765592 2410.51562,704.421875 C2420.45317,711.078158 2427.29686,720.92181 2431.04688,733.953125 L2393.78125,740.84375 C2392.18749,735.031221 2389.16408,730.57814 2384.71094,727.484375 C2380.25779,724.39061 2373.90629,722.84375 2365.65625,722.84375 C2355.24995,722.84375 2347.7969,724.29686 2343.29688,727.203125 C2340.29686,729.265635 2338.79688,731.937484 2338.79688,735.21875 C2338.79688,738.031264 2340.10936,740.421865 2342.73438,742.390625 C2346.29689,745.015638 2358.60146,748.718726 2379.64844,753.5 C2400.69542,758.281274 2415.39058,764.14059 2423.73438,771.078125 C2431.98442,778.10941 2436.10938,787.906187 2436.10938,800.46875 C2436.10938,814.156318 2430.39068,825.921826 2418.95312,835.765625 C2407.51557,845.609424 2390.59386,850.53125 2368.1875,850.53125 C2347.84365,850.53125 2331.74225,846.406291 2319.88281,838.15625 C2308.02338,829.906209 2300.26564,818.703196 2296.60938,804.546875 Z" id="winners-" fill="#009100"></path>
            <path d="M774.96875,787.25 L660.21875,787.25 C661.250005,796.437546 663.734355,803.281228 667.671875,807.78125 C673.203153,814.250032 680.42183,817.484375 689.328125,817.484375 C694.953153,817.484375 700.29685,816.078139 705.359375,813.265625 C708.45314,811.484366 711.781232,808.343773 715.34375,803.84375 L771.734375,809.046875 C763.109332,824.04695 752.703186,834.804655 740.515625,841.320313 C728.328064,847.83597 710.843864,851.09375 688.0625,851.09375 C668.281151,851.09375 652.718807,848.304715 641.375,842.726563 C630.031193,837.14841 620.63285,828.289123 613.179688,816.148438 C605.726525,804.007752 602,789.734457 602,773.328125 C602,749.984258 609.476488,731.093822 624.429688,716.65625 C639.382887,702.218678 660.031118,695 686.375,695 C707.750107,695 724.624938,698.234343 737,704.703125 C749.375062,711.171907 758.796843,720.546814 765.265625,732.828125 C771.734407,745.109436 774.96875,761.093652 774.96875,780.78125 L774.96875,787.25 Z M716.75,759.828125 C715.624994,748.76557 712.648462,740.843774 707.820313,736.0625 C702.992163,731.281226 696.640664,728.890625 688.765625,728.890625 C679.67183,728.890625 672.406277,732.499964 666.96875,739.71875 C663.499983,744.218773 661.29688,750.92183 660.359375,759.828125 L716.75,759.828125 Z M905.1875,698.375 L958.765625,698.375 L958.765625,839.421875 L958.90625,846.03125 C958.90625,855.406297 956.914082,864.335895 952.929688,872.820313 C948.945293,881.30473 943.648471,888.171849 937.039063,893.421875 C930.429654,898.671901 922.039113,902.468738 911.867188,904.8125 C901.695262,907.156262 890.046941,908.328125 876.921875,908.328125 C846.921725,908.328125 826.320369,903.82817 815.117188,894.828125 C803.914006,885.82808 798.3125,873.781325 798.3125,858.6875 C798.3125,856.812491 798.406249,854.281266 798.59375,851.09375 L854.140625,857.421875 C855.546882,862.578151 857.70311,866.140615 860.609375,868.109375 C864.828146,871.01564 870.124968,872.46875 876.5,872.46875 C884.750041,872.46875 890.914042,870.265647 894.992188,865.859375 C899.070333,861.453103 901.109375,853.76568 901.109375,842.796875 L901.109375,820.15625 C895.484347,826.812533 889.859403,831.64061 884.234375,834.640625 C875.421831,839.328148 865.906301,841.671875 855.6875,841.671875 C835.71865,841.671875 819.593811,832.953212 807.3125,815.515625 C798.593706,803.140563 794.234375,786.781352 794.234375,766.4375 C794.234375,743.187384 799.859319,725.468811 811.109375,713.28125 C822.359431,701.093689 837.078034,695 855.265625,695 C866.890683,695 876.476525,696.96873 884.023438,700.90625 C891.57035,704.84377 898.624967,711.35933 905.1875,720.453125 L905.1875,698.375 Z M851.328125,770.796875 C851.328125,781.578179 853.624977,789.570286 858.21875,794.773438 C862.812523,799.976589 868.859338,802.578125 876.359375,802.578125 C883.484411,802.578125 889.460913,799.882839 894.289063,794.492188 C899.117212,789.101536 901.53125,780.968804 901.53125,770.09375 C901.53125,759.218696 899.000025,750.898466 893.9375,745.132813 C888.874975,739.367159 882.687537,736.484375 875.375,736.484375 C868.062463,736.484375 862.226584,739.132786 857.867188,744.429688 C853.507791,749.726589 851.328125,758.515564 851.328125,770.796875 Z M1045.53125,746.75 L990.828125,740.984375 C992.890635,731.421827 995.867168,723.898465 999.757813,718.414063 C1003.64846,712.92966 1009.24996,708.171895 1016.5625,704.140625 C1021.81253,701.23436 1029.0312,698.984383 1038.21875,697.390625 C1047.4063,695.796867 1057.3437,695 1068.03125,695 C1085.18759,695 1098.9687,695.960928 1109.375,697.882813 C1119.7813,699.804697 1128.45309,703.81247 1135.39062,709.90625 C1140.26565,714.125021 1144.10936,720.101524 1146.92188,727.835938 C1149.73439,735.570351 1151.14062,742.95309 1151.14062,749.984375 L1151.14062,815.9375 C1151.14062,822.968785 1151.58593,828.476543 1152.47656,832.460938 C1153.36719,836.445332 1155.31248,841.531219 1158.3125,847.71875 L1104.59375,847.71875 C1102.43749,843.874981 1101.03125,840.945323 1100.375,838.929688 C1099.71875,836.914052 1099.0625,833.750022 1098.40625,829.4375 C1090.90621,836.656286 1083.45316,841.812485 1076.04688,844.90625 C1065.92182,849.031271 1054.15632,851.09375 1040.75,851.09375 C1022.93741,851.09375 1009.41411,846.968791 1000.17969,838.71875 C990.945266,830.468709 986.328125,820.296935 986.328125,808.203125 C986.328125,796.859318 989.656217,787.531287 996.3125,780.21875 C1002.96878,772.906213 1015.24991,767.468768 1033.15625,763.90625 C1054.62511,759.593728 1068.54684,756.570321 1074.92188,754.835938 C1081.29691,753.101554 1088.04684,750.828139 1095.17188,748.015625 C1095.17188,740.98434 1093.71876,736.062514 1090.8125,733.25 C1087.90624,730.437486 1082.79691,729.03125 1075.48438,729.03125 C1066.10933,729.03125 1059.07815,730.531235 1054.39062,733.53125 C1050.73436,735.875012 1047.78126,740.281218 1045.53125,746.75 Z M1095.17188,776.84375 C1087.29684,779.656264 1079.09379,782.140614 1070.5625,784.296875 C1058.93744,787.39064 1051.57814,790.437485 1048.48438,793.4375 C1045.29686,796.531265 1043.70312,800.046855 1043.70312,803.984375 C1043.70312,808.484398 1045.27342,812.164048 1048.41406,815.023438 C1051.5547,817.882827 1056.17184,819.3125 1062.26562,819.3125 C1068.64066,819.3125 1074.57029,817.76564 1080.05469,814.671875 C1085.53909,811.57811 1089.42968,807.80471 1091.72656,803.351563 C1094.02345,798.898415 1095.17188,793.109411 1095.17188,785.984375 L1095.17188,776.84375 Z M1185.45312,698.375 L1238.75,698.375 L1238.75,722.703125 C1246.71879,712.765575 1254.78121,705.664084 1262.9375,701.398438 C1271.09379,697.132791 1281.03119,695 1292.75,695 C1308.59383,695 1320.99214,699.71089 1329.94531,709.132813 C1338.89848,718.554735 1343.375,733.109277 1343.375,752.796875 L1343.375,847.71875 L1285.85938,847.71875 L1285.85938,765.59375 C1285.85938,756.218703 1284.12502,749.585957 1280.65625,745.695313 C1277.18748,741.804668 1272.31253,739.859375 1266.03125,739.859375 C1259.09372,739.859375 1253.46877,742.484349 1249.15625,747.734375 C1244.84373,752.984401 1242.6875,762.406182 1242.6875,776 L1242.6875,847.71875 L1185.45312,847.71875 L1185.45312,698.375 Z" id="Vegan" fill="#233539"></path>
            <g id="vegan" transform="translate(516.541504, 516.541504) rotate(-315.000000) translate(-516.541504, -516.541504) translate(155.041504, 147.541504)" fill-rule="nonzero">
                <path d="M638.982352,211.345872 C651.616064,273.659051 622.05731,363.243558 497.096967,410.618778 L483.824121,375.588939 L422.126048,437.440788 L360.64182,499.081195 L395.705298,512.281959 C366.209015,590.688825 319.996731,631.677509 274.262596,648.225318 C247.075366,658.076634 220.056329,659.292431 196.800014,654.631076 C137.86031,642.823913 95.5813436,595.571234 86.4604664,535.043305 C37.3288286,515.316645 7.01080206,462.612103 1.30664966,412.471306 C-4.37828065,362.135885 13.6496281,318.194209 48.7587582,291.393823 C39.8228935,268.058218 36.8554848,243.278553 40.1953213,218.16971 C44.6356219,184.795373 60.517866,151.57241 84.9443248,124.639872 C88.9401148,120.228405 93.0728621,116.062019 97.3161364,112.14552 C138.73972,73.8551353 191.535567,58.3717494 237.988127,69.6887493 C279.921096,16.5685298 337.935738,-8.11021885 397.968698,3.0241713 C452.371991,13.1133608 498.310361,51.6992847 518.089882,101.162503 C579.103168,109.810037 626.946927,152.141864 638.982352,211.345872 Z" id="Shape" fill="#83E46F"></path>
                <path d="M638.982352,211.345872 C651.616064,273.659051 622.05731,363.243558 497.096967,410.618778 L483.824121,375.588939 L422.126048,437.440788 L97.3233447,112.152728 C138.746928,73.8623436 191.542775,58.3789577 237.995335,69.6959576 C279.925901,16.5709325 337.940543,-8.10781609 397.973503,3.02657406 C452.376797,13.1157636 498.315167,51.7016875 518.094687,101.164906 C579.103168,109.810037 626.946927,152.141864 638.982352,211.345872 Z" id="Shape" fill="#2DD729"></path>
                <path d="M722.443596,737.731907 C476.962296,558.720561 314.18926,473.305186 234.124489,481.485783 L247.428571,402.908321 C247.428571,402.908321 356.37946,371.840162 483.087951,498.376261 C381.432295,399.286006 387.843467,262.707271 387.843467,262.707271 L466.440151,249.520924 C458.137815,329.574482 543.472296,492.311476 722.443596,737.731907 Z" id="Shape" fill="#00AD00"></path>
                <path d="M722.443596,737.731907 C478.400839,493.804077 398.615624,414.018862 483.087951,498.376261 C381.432295,399.286006 387.843467,262.707271 387.843467,262.707271 L466.440151,249.520924 C458.137815,329.574482 543.472296,492.311476 722.443596,737.731907 Z" id="Shape-Copy" fill="#009100"></path>
            </g>
        </g>
    </g>
</svg>